<svg xmlns="http://www.w3.org/2000/svg" xmlns:xlink="http://www.w3.org/1999/xlink" width="60px" height="60px" viewBox="0 0 60 60"><title>Email Copy 2</title><g id="Page-1" stroke="none" stroke-width="1" fill="none" fill-rule="evenodd"><g id="First-Bank" transform="translate(-339.000000, -285.000000)"><g id="Email-Copy-2" transform="translate(339.000000, 285.000000)"><circle id="Oval" fill="#002F51" cx="30" cy="30" r="30"></circle><g id="Icons/edit-pencil-Copy-2" transform="translate(21.000000, 21.000000)" stroke-linecap="round" stroke-linejoin="round"><path d="M13.4563163,12.0094156 C12.8780621,11.4385276 12.1561652,11.4385276 11.5815941,12.0094156 C11.1432995,12.444027 10.705005,12.8786384 10.2740767,13.3206162 C10.1562159,13.44216 10.056771,13.4679421 9.91312819,13.3869128 C9.62952582,13.2322206 9.3275077,13.1069936 9.05495477,12.9375688 C7.78426879,12.1383257 6.71983909,11.1107275 5.77695326,9.9542191 C5.3091935,9.37964805 4.8929978,8.76456238 4.60202913,8.0721306 C4.54309876,7.93217098 4.55414821,7.84009229 4.66832579,7.72591471 C5.10662037,7.30235272 5.53386551,6.86774128 5.9647938,6.43312984 C6.56514688,5.82909361 6.56514688,5.12192924 5.96111065,4.51420986 C5.61857791,4.16799397 5.27604517,3.82914438 4.93351243,3.48292849 C4.57993024,3.12934631 4.2300312,2.77208097 3.87276587,2.42218194 C3.29451167,1.85866033 2.57261471,1.85866033 1.99804366,2.42586508 C1.55606593,2.86047652 1.13250394,3.3061374 0.683159913,3.73338254 C0.266964216,4.12747935 0.0570247943,4.6099717 0.0128270212,5.17349331 C-0.0571527862,6.0905971 0.167519227,6.95613683 0.484269934,7.79957766 C1.13250394,9.5453897 2.11958754,11.0959949 3.31661056,12.5176899 C4.93351243,14.4402931 6.86348185,15.9614331 9.12125143,17.0590111 C10.1378002,17.5525529 11.1911805,17.9319171 12.3366394,17.9945307 C13.124833,18.0387284 13.8098985,17.8398385 14.3586875,17.2247528 C14.7343686,16.8048739 15.1579306,16.4218266 15.5557106,16.0203635 C16.1450142,15.4236935 16.1486973,14.7017966 15.5630769,14.1124929 C14.8632788,13.4090117 14.1597976,12.7092136 13.4563163,12.0094156 Z" id="icon-2" stroke="#FFFFFF"></path><path d="M11.2371677,7.71039089 C12.182998,7.03842419 13.4504283,7.03842419 14.3962586,7.71039089 M9.63262223,6.09220907 C11.4865275,4.54804179 14.1787169,4.54804179 16.0326222,6.09220907 M8.0053495,4.47857271 C10.7537482,2.05593616 14.8751327,2.05593616 17.6235313,4.47857271" id="Shape" stroke="#F0BD2D" transform="translate(12.814440, 5.185993) rotate(-315.000000) translate(-12.814440, -5.185993) "></path></g></g></g></g></svg>