<svg xmlns="http://www.w3.org/2000/svg" width="61" height="60" viewBox="0 0 61 60"><g fill="none" fill-rule="evenodd" transform="translate(.5)"><circle cx="30" cy="30" r="30" fill="#002F51"></circle><path stroke="#F0BD2D" stroke-linecap="round" stroke-linejoin="round" d="M20 32C20 28.687 22.687 26 26 26 28.377 26 30.431 27.383 31.402 29.388M26 20C27.656 20 29 21.344 29 23 29 24.657 27.656 26 26 26 24.343 26 23 24.657 23 23 23 21.344 24.343 20 26 20z"></path><path stroke="#FFF" stroke-linecap="round" stroke-linejoin="round" d="M28 40C28 36.687 30.687 34 34 34 37.313 34 40 36.687 40 40M34 28C35.656 28 37 29.344 37 31 37 32.657 35.656 34 34 34 32.343 34 31 32.657 31 31 31 29.344 32.343 28 34 28z"></path></g></svg>