<svg xmlns="http://www.w3.org/2000/svg" xmlns:xlink="http://www.w3.org/1999/xlink" width="60px" height="60px" viewBox="0 0 60 60"><title>Account</title><g id="Page-1" stroke="none" stroke-width="1" fill="none" fill-rule="evenodd"><g id="First-Bank" transform="translate(-179.000000, -115.000000)"><g id="Account" transform="translate(179.000000, 115.000000)"><circle id="Oval" fill="#002F51" cx="30" cy="30" r="30"></circle><g id="account" transform="translate(20.000000, 20.000000)" stroke-linecap="round" stroke-linejoin="round"><path d="M18,12.66 L18,18 C18,19.1045695 17.1045695,20 16,20 L2,20 C0.8954305,20 0,19.1045695 0,18 L0,4 C0,2.8954305 0.8954305,2 2,2 L7.34,2" id="dsh-icon-copy" stroke="#FFFFFF"></path><path d="M10,14 L6,14 L6,10 L10.6716667,5.33 L16,-4.97379915e-14 L20,4 L14.6716667,9.33 L10,14 Z" id="Combined-Shape" stroke="#F0BD2D"></path><line x1="13.4078751" y1="2.73704177" x2="17.3205461" y2="6.64971279" id="Line" stroke="#F0BD2D"></line></g></g></g></g></svg>