<?xml version="1.0" encoding="UTF-8"?>
<svg width="1440px" height="573px" viewBox="0 0 1440 573" version="1.1" xmlns="http://www.w3.org/2000/svg" xmlns:xlink="http://www.w3.org/1999/xlink">
    <!-- Generator: Sketch 55.2 (78181) - https://sketchapp.com -->
    <title>Combined Shape</title>
    <desc>Created with Sketch.</desc>
    <defs>
        <rect id="path-1" x="0" y="0" width="1440" height="573"></rect>
    </defs>
    <g id="Page-1" stroke="none" stroke-width="1" fill="none" fill-rule="evenodd">
        <g id="Desktop-HD-Copy" transform="translate(0.000000, -3411.000000)">
            <g id="Group-12" transform="translate(0.000000, 3411.000000)">
                <g id="Footer">
                    <g id="Group-19">
                        <g id="Combined-Shape">
                            <mask id="mask-2" fill="white">
                                <use xlink:href="#path-1"></use>
                            </mask>
                            <use id="Mask" fill="#003B65" xlink:href="#path-1"></use>
                            <path d="M291.400069,373.327151 C304.393008,373.327151 325,369.974206 325,380.406208 C325,387.90856 313.45072,400.746661 272.270181,402.161358 L235.922279,573 L-65,573 L-9.78976103,313.313903 C-9.78976103,313.313903 -17.5598845,302.007462 -17.5598845,271.157032 C-17.5598845,251.49608 -9.49434027,221.620343 -7.25917562,214.613692 C-4.97384519,207.601471 2.53430139,203.218137 13.2697805,204.928027 L22.6117654,161 L323.567488,161 L278.395981,372.892716 C281.768237,373.327151 286.634319,373.327151 291.400069,373.327151 Z M155.852801,349.980641 C155.852801,349.980641 209.552416,403.667636 284.57238,394.507268 C311.748434,391.121551 317.777023,383.965884 316.923763,380.685971 C316.103964,377.534136 306.801756,378.870604 297.739354,379.243701 C292.485949,379.538837 247.335664,385.408155 187.194772,339.778943 C163.794254,333.698017 155.852801,349.980641 155.852801,349.980641 Z M-18.4687884,464.46018 L40.5901926,444.001097 L122.358161,501.83114 L90.709462,521.621989 L137.47146,560.451926 L138.14626,546.742001 L152.272455,512.060682 L151.173813,482.1628 L121.443555,433.938614 L127.198878,412.995062 L125.235822,389.506654 C48.3643399,389.679281 15.3939248,356.100546 -2.78107232,328.602737 L-31,462.600264 L-18.4687884,464.46018 Z M151.486117,284.788892 L109.442145,290.613661 L134.593798,268.645484 L151.486117,284.788892 Z M224.464948,318.339784 C219.830575,309.675022 200.58482,286.409359 200.58482,286.409359 L201.700193,274.464684 C187.088811,251.416197 149.272102,219.803182 149.272102,219.803182 C124.678136,212.881397 102.114147,214.557549 102.114147,214.557549 L86.6941205,222.988429 L13.4197152,212.324536 C13.4197152,212.324536 2.14329786,210.269717 -0.327252526,216.500995 C-2.78107232,222.787959 -10.5106047,251.494157 -10.5106047,271.145791 C-10.5106047,281.887645 -13.7898002,375.161907 136.010322,375.161907 C136.010322,375.161907 145.323683,368.546396 148.184614,355.432313 L140.60008,348.705429 C140.60008,348.705429 152.149764,321.881421 185.705749,328.574894 C185.705749,328.574894 215.185048,352.263772 232.780051,360.293712 C231.302183,340.558548 229.534317,327.672779 224.464948,318.339784 Z M209.602608,502.031891 C215.396969,502.031891 219.39558,498.523384 219.39558,498.523384 C219.986727,489.919878 217.995787,485.464987 217.995787,485.464987 C211.058169,487.280355 205.40323,484.830166 204.644777,477.752459 C203.691133,468.246837 225.206671,426.643732 230.711035,412.766749 C232.874858,407.348489 233.058895,399.613686 233.058895,399.613686 C210.093372,396.428439 190.245316,384.166354 190.245316,384.166354 L192.481638,398.71157 C193.396244,407.638057 181.801945,454.926715 184.177689,478.248065 C184.177689,478.248065 186.18536,502.126276 209.602608,502.031891 Z M39.6811639,495.666686 L17.1227524,549.693366 L23.2628787,562 L77.3696053,562 L71.3354393,549.581994 L84.3629917,485.604203 L39.5082811,454.169384 L39.6811639,495.666686 Z" fill-opacity="0.1" fill="#000000" mask="url(#mask-2)"></path>
                        </g>
                    </g>
                </g>
            </g>
        </g>
    </g>
</svg>